<?xml version="1.0" encoding="UTF-8" ?>
<!DOCTYPE svg PUBLIC "-//W3C//DTD SVG 1.1//EN" "http://www.w3.org/Graphics/SVG/1.1/DTD/svg11.dtd">
<svg width="500pt" height="500pt" viewBox="0 0 500 500" version="1.1" xmlns="http://www.w3.org/2000/svg">
<g id="#8921ffff">
<path fill="#8921ff" opacity="1.00" d=" M 246.51 9.69 C 249.73 8.76 253.31 9.20 256.25 10.81 C 320.93 48.13 385.58 85.50 450.27 122.81 C 455.56 125.13 460.48 129.74 460.25 135.97 C 460.25 211.97 460.25 287.97 460.25 363.97 C 460.28 368.40 457.88 372.81 454.01 375.02 C 388.09 413.06 322.19 451.14 256.26 489.18 C 252.43 491.32 247.52 491.31 243.70 489.16 C 177.78 451.12 111.88 413.05 45.96 375.01 C 42.11 372.80 39.72 368.40 39.75 363.99 C 39.75 288.01 39.75 212.02 39.75 136.04 C 39.62 130.78 43.11 126.03 47.80 123.91 C 107.89 89.29 167.91 54.56 227.98 19.91 C 234.20 16.59 240.00 12.39 246.51 9.69 M 165.42 147.29 C 166.44 154.50 167.03 161.76 167.25 169.04 C 167.24 217.36 167.25 265.68 167.24 314.00 C 167.25 322.30 169.19 330.99 174.73 337.42 C 181.07 344.81 190.69 348.25 200.01 349.98 C 214.86 352.43 229.97 352.51 244.98 352.77 C 274.87 352.20 304.85 351.47 334.51 347.43 C 334.49 337.36 334.50 327.29 334.50 317.21 C 308.82 323.29 282.31 324.69 256.03 325.71 C 241.62 325.76 227.13 326.14 212.82 324.12 C 207.59 323.13 201.87 322.04 197.98 318.12 C 194.66 314.65 194.43 309.58 194.28 305.05 C 194.21 289.03 194.30 273.01 194.23 256.98 C 194.44 255.67 193.81 253.95 194.59 252.86 C 227.85 243.92 260.95 234.21 293.29 222.30 C 305.14 217.95 316.64 212.73 328.34 208.00 C 324.66 199.08 320.81 190.24 317.03 181.37 C 298.06 193.17 276.83 200.54 255.81 207.77 C 235.53 214.53 215.02 220.64 194.26 225.76 C 194.24 216.16 194.26 206.57 194.25 196.97 C 194.33 180.38 193.67 163.69 196.23 147.24 C 185.96 147.29 175.69 147.18 165.42 147.29 Z" />
</g>
<g id="#ffffffff">
<path fill="#ffffff" opacity="1.00" d=" M 165.42 147.29 C 175.69 147.18 185.96 147.29 196.23 147.24 C 193.67 163.69 194.33 180.38 194.25 196.97 C 194.26 206.57 194.24 216.16 194.26 225.76 C 215.02 220.64 235.53 214.53 255.81 207.77 C 276.83 200.54 298.06 193.17 317.03 181.37 C 320.81 190.24 324.66 199.08 328.34 208.00 C 316.64 212.73 305.14 217.95 293.29 222.30 C 260.95 234.21 227.85 243.92 194.59 252.86 C 193.81 253.95 194.44 255.67 194.23 256.98 C 194.30 273.01 194.21 289.03 194.28 305.05 C 194.43 309.58 194.66 314.65 197.98 318.12 C 201.87 322.04 207.59 323.13 212.82 324.12 C 227.13 326.14 241.62 325.76 256.03 325.71 C 282.31 324.69 308.82 323.29 334.50 317.21 C 334.50 327.29 334.49 337.36 334.51 347.43 C 304.85 351.47 274.87 352.20 244.98 352.77 C 229.97 352.51 214.86 352.43 200.01 349.98 C 190.69 348.25 181.07 344.81 174.73 337.42 C 169.19 330.99 167.25 322.30 167.24 314.00 C 167.25 265.68 167.24 217.36 167.25 169.04 C 167.03 161.76 166.44 154.50 165.42 147.29 Z" />
</g>
</svg>
